<?xml version="1.0" encoding="utf-8"?>
<!-- Generator: Adobe Illustrator 19.0.0, SVG Export Plug-In . SVG Version: 6.00 Build 0)  -->
<svg version="1.1" id="Layer_1" xmlns="http://www.w3.org/2000/svg" xmlns:xlink="http://www.w3.org/1999/xlink" x="0px" y="0px"
	 width="1400px" height="978px" viewBox="0 0 1400 978" enable-background="new 0 0 1400 978" xml:space="preserve">
<g id="XMLID_1_">
	<rect id="XMLID_199_" x="0.3" fill-rule="evenodd" clip-rule="evenodd" fill="#A4A9A9" width="1400" height="980"/>
	<g>
		<polygon id="XMLID_198_" fill-rule="evenodd" clip-rule="evenodd" fill="#9D7A6E" points="1293,429.1 814.8,148.4 107,557.1 
			107,571.5 589.6,849.6 1293,443.5 		"/>
		<polygon id="XMLID_197_" fill-rule="evenodd" clip-rule="evenodd" fill="#D9DBDB" points="107.5,557.1 590.1,835.2 1293.5,429.1 
			815.3,148.4 		"/>
		<polygon id="XMLID_196_" fill-rule="evenodd" clip-rule="evenodd" fill="#B8BBBB" points="107.4,556.9 590,835 590,849.4 
			107.4,571.3 		"/>
		<polygon id="XMLID_195_" fill-rule="evenodd" clip-rule="evenodd" fill="#C6C8C8" points="1293.4,428.8 590,835 590,849.4 
			1293.4,443.3 		"/>
		<path fill-rule="evenodd" clip-rule="evenodd" fill="#B8BBBB" d="M523.4,708.3l-17.1-7.9c-3-1.4-3-5.6,0-7l212-122.9
			c0.5-0.2,1-0.3,1.6-0.3c0.5,0,1.1,0.1,1.6,0.4l5.7,2.9L525.9,689.9c-0.1,0.1-0.3,0.1-0.4,0.2c-4.3,1.3-6.9,5.6-6.2,10.7
			C519.8,703.7,521.3,706.3,523.4,708.3 M605.1,745.9l-74.1-34.2c0.2,0,0.5,0,0.7,0c0,0,0,0,0,0c1.4,0,2.7-0.3,3.8-0.8l0,0l8.3-3.8
			L605.1,745.9z M609.4,747.5c-0.5,0-0.9-0.1-1.3-0.2c0.5,0.1,1,0.2,1.6,0.2c0.2,0,0.5,0,0.7,0C610.1,747.5,609.8,747.5,609.4,747.5
			L609.4,747.5z"/>
		<polygon id="XMLID_191_" fill-rule="evenodd" clip-rule="evenodd" fill="#9C9791" points="563.2,689.1 529.4,704.6 535.5,711 
			569.3,695.6 		"/>
		<path id="XMLID_190_" fill-rule="evenodd" clip-rule="evenodd" fill="#F0F1F1" d="M727.1,576.1L525.9,690.6
			c-1.5,0.7-1.5,4.7,0,5.4l80.4,50.7c2.1,1,4.5,1,6.6,0l199.5-115.7c1.5-0.7,1.8-4.6,0.3-5.2l-82.3-49.7
			C729.4,575.6,728.2,575.6,727.1,576.1"/>
		<path id="XMLID_189_" fill-rule="evenodd" clip-rule="evenodd" fill="#CACDCD" d="M727.1,573.5L525.9,689.9
			c-1.5,0.7-1.5,2.7,0,3.4l80.4,50.7c2.1,1,4.5,1,6.6,0l199.5-115.7c1.5-0.7,1.5-2.8,0-3.4l-82.1-51.5
			C729.4,573,728.2,573,727.1,573.5"/>
		<path fill-rule="evenodd" clip-rule="evenodd" fill="#F0EBE6" d="M561.2,710.5c-1.3-0.8-2.6-1.6-3.8-2.3
			C558.7,708.9,560,709.8,561.2,710.5 M761.3,639.5c-1.1,0.6-1.3,1.5-0.5,2.1c0.3,0.2,0.6,0.4,0.9,0.6c0.9,0.6,2.6,0.5,3.7-0.2
			c2.2-1.2,4.4-2.5,6.7-3.7c1-0.6,1.2-1.4,0.5-1.9c-0.4-0.2-0.7-0.5-1-0.7c-0.9-0.6-2.6-0.5-3.8,0.1
			C765.6,637.1,763.4,638.3,761.3,639.5z M657.4,691.5c-1.1,0.6-1.3,1.6-0.4,2.1c2.2,1.4,4.4,2.8,6.7,4.2c0.8,0.5,2.4,0.5,3.5-0.1
			c19.7-11,39.6-22.1,59.8-33.4c1.2-0.6,1.4-1.6,0.6-2.2c-2.3-1.5-4.5-2.9-6.7-4.4c-0.9-0.6-2.5-0.5-3.6,0.1
			C697,669.2,677.1,680.4,657.4,691.5z M742.2,643.8c-1.2,0.6-1.4,1.6-0.5,2.2c2.2,1.5,4.4,3,6.7,4.4c0.8,0.6,2.5,0.5,3.6-0.1
			c2.5-1.4,5-2.8,7.5-4.2c1.1-0.7,1.4-1.6,0.5-2.2c-2.2-1.5-4.5-3-6.7-4.5c-0.9-0.6-2.5-0.5-3.7,0.1
			C747.2,641,744.7,642.4,742.2,643.8z M641.3,700.5c-1.1,0.6-1.3,1.5-0.4,2.1c2.2,1.4,4.4,2.8,6.6,4.2c0.9,0.5,2.4,0.5,3.5-0.1
			c2.9-1.6,5.9-3.3,8.9-5c1.1-0.6,1.3-1.6,0.5-2.1c-2.3-1.4-4.5-2.8-6.7-4.2c-0.8-0.6-2.5-0.5-3.5,0.1
			C647.2,697.2,644.2,698.8,641.3,700.5z M724.8,653.6c-1.1,0.6-1.4,1.6-0.5,2.2c2.2,1.5,4.5,3,6.7,4.4c0.9,0.6,2.5,0.5,3.6-0.1
			c3.3-1.8,6.5-3.6,9.8-5.4c1.2-0.7,1.4-1.7,0.6-2.2c-2.2-1.4-4.4-2.9-6.6-4.4c-0.9-0.6-2.5-0.5-3.7,0.1
			C731.3,650,728.1,651.8,724.8,653.6z M603.7,710.3c-0.8-0.5-2.4-0.5-3.5,0.1c-4.8,2.7-9.6,5.4-14.3,8.1c-1.1,0.6-1.2,1.5-0.4,2
			c1.8,1.1,3.6,2.2,5.4,3.3c0.8,0.5,2.4,0.5,3.5-0.1c4.7-2.6,9.4-5.3,14.1-8c1.1-0.6,1.2-1.5,0.4-2
			C607.2,712.6,605.5,711.5,603.7,710.3z M626.5,708.8c-1.1,0.6-1.2,1.5-0.4,2.1c2.2,1.4,4.4,2.8,6.6,4.2c0.8,0.5,2.4,0.5,3.5-0.1
			c2.6-1.4,5.1-2.8,7.7-4.3c1-0.6,1.2-1.5,0.4-2.1c-2.2-1.4-4.5-2.8-6.7-4.2c-0.8-0.5-2.4-0.5-3.5,0.1
			C631.6,706,629,707.4,626.5,708.8z M612.8,716.5c-1.1,0.6-1.2,1.5-0.4,2c2.2,1.4,4.4,2.8,6.6,4.1c0.8,0.5,2.4,0.5,3.5-0.1
			c2.2-1.2,4.4-2.5,6.6-3.7c1.1-0.6,1.2-1.5,0.4-2c-2.2-1.4-4.4-2.8-6.6-4.1c-0.8-0.5-2.4-0.5-3.5,0.1
			C617.2,714.1,615,715.3,612.8,716.5z M597,725.4c-1,0.6-1.2,1.5-0.3,2c2.2,1.4,4.4,2.7,6.6,4.1c0.8,0.5,2.4,0.5,3.4-0.1
			c3-1.6,5.9-3.2,8.8-4.9c1-0.6,1.2-1.5,0.3-2c-2.2-1.4-4.4-2.8-6.6-4.1c-0.8-0.5-2.4-0.5-3.5,0.1
			C602.8,722.1,599.9,723.7,597,725.4z M691.7,633.5c-0.7,0-1.2,0-2.3,0.6c-2.6,1.5-5.2,3-7.8,4.5c-1.1,0.7-1.4,1.7-0.5,2.2
			c1.3,0.8,2.5,1.7,3.8,2.5c0.9,0.6,1.7,0.7,1.7,0.7c0,0,1,0,2.1-0.6c2.6-1.5,5.2-2.9,7.8-4.4c1.1-0.7,1.3-1.7,0.5-2.2
			c-1.3-0.8-2.5-1.7-3.8-2.5C692.4,633.7,692.4,633.5,691.7,633.5z M772.8,633.1c-0.9,0.5-1.1,1.3-0.4,1.7c0.4,0.3,0.8,0.5,1.1,0.8
			c0.9,0.6,2.7,0.5,4-0.2c2.3-1.3,4.7-2.6,7-3.9c0.8-0.5,1.1-1.2,0.4-1.7c-0.4-0.2-0.7-0.5-1.1-0.8c-0.9-0.6-2.7-0.6-4,0.2
			C777.5,630.5,775.1,631.8,772.8,633.1z M665.9,647.6c-1.1,0.6-1.4,1.6-0.5,2.2c1.4,0.9,2.8,1.8,4.1,2.7c0.9,0.6,1.7,0.5,1.7,0.6
			c0,0,0.8,0,1.9-0.7c2.7-1.6,5.5-3.1,8.2-4.7c1.1-0.6,1.3-1.6,0.5-2.2c-1.4-0.9-2.7-1.8-4.1-2.7c-0.9-0.6-2.5-0.5-3.6,0.1
			C671.4,644.5,668.6,646.1,665.9,647.6z M660.5,651.2c0,0-0.8,0.1-2,0.7c-2.7,1.6-5.4,3.1-8.1,4.7c-1.1,0.6-1.3,1.6-0.4,2.2
			c1.3,0.9,2.7,1.8,4.1,2.7c0.9,0.6,2.5,0.5,3.6-0.1c2.7-1.5,5.4-3.1,8.1-4.6c1.1-0.6,1.3-1.6,0.4-2.2c-1.3-0.9-2.7-1.7-4-2.6
			C661.4,651.3,660.5,651.2,660.5,651.2z M729.3,620.3c1.2-0.7,1.4-1.7,0.5-2.3c-1.4-0.9-2.8-1.9-4.1-2.8c-0.9-0.6-2.5-0.5-3.7,0.1
			c-2.8,1.6-5.6,3.2-8.5,4.8c-1.2,0.7-1.4,1.7-0.5,2.3c1.4,0.9,2.8,1.9,4.2,2.8c0.8,0.6,2.5,0.5,3.7-0.1
			C723.7,623.6,726.5,621.9,729.3,620.3z M708.4,624c-0.5-0.1-1.2-0.1-2.3,0.6c-3.1,1.8-6.1,3.5-9.1,5.3c-1.2,0.6-1.4,1.7-0.5,2.2
			c1.3,0.9,2.7,1.8,4.1,2.7c0.8,0.5,1.7,0.5,1.8,0.5c0,0,0,0,0,0s0.7,0.1,1.8-0.6c3-1.7,6-3.4,9-5.1c1.2-0.7,1.4-1.7,0.5-2.3
			c-1.3-0.8-2.5-1.6-3.7-2.5C709.2,624.2,708.8,624.1,708.4,624z M786.4,628.6c0.9,0.6,2.6,0.5,3.8-0.2c2.1-1.2,4.3-2.4,6.5-3.7
			c0.8-0.4,0.9-1,0.4-1.4c-0.5-0.3-0.9-0.6-1.4-1c-0.8-0.6-2.6-0.6-3.8,0.1c-2.3,1.3-4.5,2.5-6.7,3.8c-0.6,0.3-0.8,0.9-0.3,1.2
			C785.3,627.9,785.8,628.3,786.4,628.6z M726.7,625.1c-1.2,0.7-1.4,1.7-0.5,2.3c1.8,1.2,3.6,2.4,5.4,3.6c0.9,0.6,2.5,0.5,3.7-0.2
			c3.1-1.8,6.2-3.5,9.3-5.3c1.1-0.7,1.4-1.7,0.5-2.3c-1.8-1.2-3.6-2.4-5.4-3.6c-0.9-0.6-2.6-0.5-3.7,0.2
			C732.9,621.6,729.8,623.3,726.7,625.1z M657.6,636.5c1.1-0.7,1.3-1.7,0.4-2.2c-0.6-0.4-1.2-0.8-1.9-1.2c-0.9-0.6-2.6-0.5-3.7,0.1
			c-3.4,2-6.7,3.9-10.1,5.9c-1.1,0.6-1.3,1.6-0.4,2.2c0.6,0.4,1.2,0.8,1.9,1.2c0.9,0.6,2.5,0.5,3.7-0.1
			C650.9,640.4,654.2,638.5,657.6,636.5z M708.3,607.1c1.2-0.7,1.4-1.7,0.5-2.3c-0.6-0.4-1.3-0.8-1.9-1.3c-0.8-0.6-2.5-0.5-3.7,0.1
			c-3.5,2.1-7.1,4.1-10.6,6.2c-1.2,0.7-1.4,1.7-0.5,2.3c0.6,0.4,1.2,0.8,1.9,1.3c0.9,0.6,2.6,0.5,3.7-0.1
			C701.2,611.2,704.8,609.2,708.3,607.1z M742,587.5c1.2-0.7,1.4-1.8,0.5-2.4c-0.6-0.4-1.3-0.8-1.9-1.3c-0.9-0.6-2.5-0.6-3.8,0.2
			c-3.3,1.9-6.5,3.8-9.8,5.7c-1.2,0.7-1.4,1.7-0.5,2.3c0.6,0.4,1.2,0.9,1.9,1.3c0.8,0.6,2.5,0.5,3.7-0.1
			C735.5,591.4,738.7,589.5,742,587.5z M724.4,597.8c1.2-0.7,1.4-1.7,0.5-2.4c-0.7-0.4-1.2-0.8-1.9-1.3c-0.9-0.6-2.6-0.6-3.7,0.1
			c-2.8,1.6-5.6,3.3-8.4,4.9c-1.2,0.7-1.4,1.7-0.5,2.3c0.6,0.5,1.2,0.8,1.9,1.3c0.9,0.6,2.6,0.6,3.7-0.1
			C718.8,601.1,721.6,599.4,724.4,597.8z M690.1,617.7c1.1-0.7,1.3-1.7,0.5-2.3c-0.7-0.4-1.3-0.8-1.9-1.3c-0.9-0.6-2.6-0.5-3.7,0.1
			c-3,1.7-5.9,3.5-8.9,5.2c-1.1,0.7-1.3,1.7-0.5,2.3c0.6,0.4,1.2,0.9,1.9,1.3c0.9,0.6,2.6,0.5,3.7-0.1
			C684.1,621.1,687.1,619.4,690.1,617.7z M673.6,627.2c1.1-0.7,1.4-1.7,0.4-2.3c-0.6-0.4-1.2-0.8-1.8-1.2c-0.9-0.6-2.5-0.5-3.7,0.1
			c-2.9,1.7-5.7,3.3-8.6,5c-1.2,0.7-1.3,1.7-0.4,2.3c0.6,0.4,1.2,0.8,1.9,1.2c0.9,0.6,2.6,0.5,3.7-0.1
			C667.9,630.6,670.8,628.9,673.6,627.2z M751.4,633.3c0.9,0.6,1.8,0.5,1.9,0.5c0,0,0.8,0.1,2-0.6c9.7-5.5,19.5-11,29.3-16.5
			c1.2-0.7,1.5-1.7,0.6-2.3c-1.8-1.2-3.6-2.5-5.4-3.7c-0.9-0.6-2.5-0.5-3.7,0.1c-9.9,5.6-19.7,11.1-29.3,16.6
			c-1.2,0.7-1.4,1.7-0.5,2.3C747.9,630.9,749.7,632.1,751.4,633.3z M604.1,705.2c1.1-0.6,1.3-1.5,0.4-2.1c-1.8-1.1-3.6-2.2-5.3-3.4
			c-0.9-0.5-2.4-0.5-3.5,0.1c-6.9,4-13.9,7.9-20.7,11.9c-1.1,0.6-1.2,1.5-0.4,2c1.8,1.1,3.6,2.2,5.4,3.3c0.9,0.5,1.6,0.5,1.6,0.5
			c0,0,1-0.1,2-0.7C590.4,713,597.2,709.1,604.1,705.2z M728.7,606.2c0.9,0.6,2.6,0.6,3.7-0.1c6.5-3.8,13.2-7.6,19.9-11.5
			c1.2-0.7,1.4-1.7,0.6-2.3c-1.5-1-3-2-4.5-3.1c-0.9-0.6-2.6-0.5-3.7,0.2c-6.6,3.8-13.1,7.6-19.6,11.4c-1.1,0.7-1.4,1.7-0.5,2.4
			C725.9,604.1,727.3,605.2,728.7,606.2z M749.5,606.5c0.8,0.6,1,0.6,1.7,0.7c0.7,0.1,2.4-0.8,2.4-0.8c1.1-0.7,1.9-1.3,2.6-1.5
			c0.7-0.2,1.7,0.5,2.5,1.1c2.5,1.7,5.1,3.5,7.6,5.2c0.9,0.6,2.6,0.5,3.8-0.1c1.1-0.6,2.3-1.3,3.4-1.9c1.2-0.7,1.5-1.7,0.6-2.3
			c-5.1-3.5-10.2-7-15.3-10.5c-0.9-0.6-2.6-0.5-3.8,0.2c-3,1.7-6,3.4-8.9,5.1c-1.2,0.7-1.4,1.7-0.6,2.3
			C746.8,604.8,748.1,605.7,749.5,606.5z M577.5,682.9c1.1-0.6,1.2-1.6,0.4-2.1c-0.6-0.4-1.3-0.8-1.9-1.2c-0.8-0.5-2.4-0.5-3.5,0.1
			c-2.7,1.6-5.5,3.2-8.2,4.8c-1.1,0.6-1.2,1.6-0.3,2.1c0.6,0.4,1.2,0.8,1.9,1.2c0.9,0.5,2.5,0.5,3.5-0.1
			C572,686.2,574.8,684.6,577.5,682.9z M566.3,694.5c-0.9-0.5-2.4-0.5-3.5,0.1c-2.7,1.6-5.3,3.1-8,4.6c-1,0.6-1.2,1.5-0.3,2.1
			c1.5,0.9,3,1.8,4.4,2.7c0.9,0.5,2.4,0.5,3.5-0.1c2.7-1.5,5.3-3.1,8-4.6c1-0.6,1.2-1.6,0.3-2.1
			C569.3,696.4,567.8,695.5,566.3,694.5z M593,674c1.1-0.6,1.2-1.6,0.3-2.1c-0.6-0.4-1.2-0.8-1.8-1.2c-0.9-0.5-2.5-0.5-3.6,0.1
			c-2.8,1.6-5.6,3.2-8.4,4.8c-1.1,0.6-1.2,1.6-0.3,2.1c0.6,0.4,1.2,0.8,1.9,1.2c0.9,0.6,2.5,0.5,3.5-0.1
			C587.4,677.2,590.2,675.6,593,674z M635,665.4c-1.1,0.6-1.3,1.6-0.4,2.2c1.4,0.9,2.8,1.8,4.2,2.6c0.8,0.6,2.4,0.5,3.5-0.1
			c2.7-1.5,5.4-3.1,8.1-4.6c1.1-0.6,1.3-1.6,0.4-2.2c-1.4-0.9-2.7-1.8-4.2-2.7c-0.8-0.6-2.4-0.5-3.6,0.1
			C640.4,662.3,637.7,663.9,635,665.4z M586,695.4c-0.8-0.5-2.5-0.5-3.5,0.1c-5.9,3.4-11.7,6.7-17.5,10c-1.1,0.6-1.2,1.5-0.3,2.1
			c1.3,0.8,2.7,1.7,4.1,2.5c0.9,0.5,2.4,0.5,3.5-0.1c5.8-3.3,11.6-6.6,17.5-10c1-0.6,1.2-1.5,0.3-2.1
			C588.8,697.2,587.4,696.3,586,695.4z M640.1,646.6c1.1-0.6,1.3-1.6,0.4-2.2c-0.6-0.4-1.3-0.8-1.9-1.2c-0.9-0.6-2.5-0.5-3.7,0.1
			c-2.8,1.6-5.7,3.3-8.5,5c-1.1,0.6-1.3,1.6-0.4,2.2c0.6,0.4,1.3,0.8,1.9,1.2c0.9,0.6,2.5,0.5,3.6-0.1
			C634.5,650,637.3,648.3,640.1,646.6z M608.6,665c1.1-0.6,1.2-1.6,0.3-2.2c-0.6-0.4-1.2-0.8-1.9-1.2c-0.9-0.6-2.5-0.5-3.6,0.1
			c-2.8,1.7-5.6,3.3-8.4,4.9c-1.1,0.7-1.2,1.6-0.4,2.2c0.6,0.4,1.2,0.8,1.9,1.2c0.9,0.5,2.5,0.5,3.6-0.1
			C602.9,668.2,605.7,666.6,608.6,665z M624.3,655.8c1.1-0.6,1.2-1.6,0.4-2.2c-0.6-0.4-1.2-0.8-1.9-1.2c-0.9-0.6-2.5-0.5-3.6,0.1
			c-2.8,1.7-5.7,3.3-8.5,4.9c-1.1,0.6-1.3,1.6-0.3,2.2c0.6,0.4,1.2,0.8,1.9,1.2c0.9,0.6,2.5,0.5,3.6-0.1
			C618.6,659.1,621.4,657.5,624.3,655.8z M563.3,690.7c0,0,0.1-0.5-0.7-1c-0.6-0.4-1.2-0.8-1.9-1.2c-0.9-0.5-2.5-0.5-3.5,0.1
			c-3.4,2-6.8,3.9-10.1,5.9c-1,0.6-1.1,1.6-0.3,2.1c0.6,0.4,1.2,0.8,1.9,1.1c0.9,0.5,2.5,0.5,3.5-0.1c3.3-1.9,6.7-3.9,10-5.8
			C563.3,691.2,563.3,690.7,563.3,690.7z M616.8,701.5c0,0-0.9,0.1-1.9,0.7c-2.6,1.5-5.2,2.9-7.7,4.4c-1.1,0.6-1.2,1.5-0.4,2.1
			c1.8,1.1,3.6,2.2,5.4,3.4c0.9,0.5,2.4,0.5,3.5-0.1c2.5-1.4,5.1-2.9,7.7-4.3c1.1-0.6,1.2-1.6,0.4-2.1c-1.7-1.1-3.5-2.1-5.2-3.2
			C617.7,701.7,616.8,701.6,616.8,701.5z M618.9,696.8c1.1-0.6,1.3-1.6,0.4-2.1c-1.8-1.1-3.6-2.2-5.4-3.4c-0.9-0.5-2.5-0.5-3.5,0.1
			c-2.6,1.5-5.2,3-7.7,4.4c-1.1,0.6-1.3,1.5-0.4,2.1c1.8,1.1,3.5,2.2,5.3,3.3c0.9,0.5,2.5,0.5,3.5-0.1
			C613.8,699.7,616.3,698.3,618.9,696.8z M601.3,687c-0.9-0.5-1.7-0.7-1.7-0.7c0,0-1,0-2,0.6c-2.6,1.5-5.3,3-7.9,4.5
			c-1.1,0.6-1.2,1.5-0.4,2.1c1.4,0.9,2.8,1.7,4.1,2.6c0.8,0.6,2.4,0.5,3.5-0.1c2.6-1.5,5.2-3,7.8-4.5c1.1-0.6,1.2-1.6,0.4-2.1
			C603.9,688.6,602.6,687.8,601.3,687z M621.9,698.2c-1.1,0.6-1.2,1.6-0.4,2.1c1.8,1.1,3.6,2.3,5.4,3.4c0.8,0.5,1.4,0.5,1.4,0.5
			s1-0.1,2-0.7c2.6-1.5,5.3-2.9,7.9-4.4c1.1-0.6,1.2-1.5,0.4-2.1c-1.8-1.1-3.6-2.3-5.4-3.4c-0.9-0.6-2.4-0.5-3.5,0.1
			C627.2,695.2,624.6,696.7,621.9,698.2z M579.4,685.4c0,0-0.8,0-1.9,0.6c-2.6,1.5-5.2,3-7.8,4.5c-1.1,0.6-1.2,1.6-0.3,2.1
			c1.5,0.9,2.9,1.9,4.4,2.8c0.9,0.5,2.4,0.5,3.5-0.1c2.6-1.5,5.2-3,7.8-4.5c1-0.6,1.2-1.6,0.3-2.1c-1.4-0.9-2.9-1.8-4.3-2.7
			C580.4,685.5,579.4,685.5,579.4,685.4z M615.2,673.6c1.1-0.6,1.3-1.6,0.4-2.2c-1.5-0.9-3-1.9-4.5-2.8c-0.9-0.5-2.5-0.5-3.6,0.1
			c-2.6,1.5-5.3,3.1-7.9,4.6c-1.1,0.6-1.2,1.6-0.4,2.2c1.4,1,2.8,1.9,4.3,2.9c0.9,0.6,2.4,0.5,3.5-0.1
			C609.8,676.7,612.5,675.1,615.2,673.6z M590.5,687.5c0,0,0.8,0,1.8-0.6c2.6-1.5,5.2-3,7.8-4.5c1.1-0.6,1.2-1.6,0.4-2.1
			c-1.5-0.9-3-1.9-4.4-2.8c-0.9-0.6-2.5-0.5-3.6,0.1c-2.6,1.5-5.2,3-7.8,4.5c-1.1,0.6-1.2,1.6-0.3,2.1c1.5,0.9,2.9,1.8,4.4,2.8
			C589.6,687.5,590.5,687.5,590.5,687.5z M637,689.6c-1.1,0.6-1.3,1.6-0.4,2.1c1.8,1.1,3.6,2.3,5.4,3.4c0.8,0.5,2.4,0.5,3.5-0.1
			c2.6-1.5,5.3-3,7.9-4.5c1.1-0.6,1.3-1.6,0.4-2.1c-1.8-1.1-3.6-2.3-5.4-3.4c-0.9-0.6-2.5-0.5-3.6,0.1
			C642.3,686.6,639.6,688.1,637,689.6z M714.6,645.7c-1.1,0.6-1.4,1.6-0.5,2.2c1.8,1.2,3.6,2.4,5.4,3.6c0.8,0.6,2.5,0.5,3.6-0.1
			c2.7-1.6,5.5-3.1,8.3-4.7c1.1-0.6,1.4-1.6,0.5-2.2c-1.8-1.2-3.6-2.4-5.4-3.6c-0.9-0.6-2.5-0.5-3.7,0.1
			C720.1,642.6,717.4,644.1,714.6,645.7z M730.6,636.7c-1.1,0.7-1.4,1.7-0.5,2.2c1.8,1.2,3.6,2.4,5.4,3.6c0.8,0.6,2.5,0.5,3.7-0.1
			c2.8-1.6,5.6-3.2,8.4-4.8c1.2-0.6,1.4-1.7,0.6-2.2c-1.8-1.2-3.6-2.4-5.4-3.6c-0.9-0.6-2.5-0.5-3.7,0.1
			C736.2,633.5,733.3,635.1,730.6,636.7z M769,629.4c-1.3,0.7-1.5,1.8-0.6,2.4c0.5,0.3,1.1,0.7,1.6,1.1c0.7,0.5,2,0.4,3-0.1
			c2.4-1.3,4.7-2.6,7.1-3.9c1.2-0.7,1.4-1.7,0.6-2.3c-0.7-0.5-1.4-1-2.1-1.5c-0.5-0.3-1.3-0.3-1.8,0.1
			C774.1,626.5,771.5,628,769,629.4z M620.6,670.1c0,0,0.8,0,1.9-0.7c2.6-1.5,5.3-3.1,8-4.6c1.1-0.6,1.3-1.7,0.4-2.2
			c-1.5-0.9-3-1.9-4.4-2.9c-0.9-0.6-2.5-0.5-3.6,0.1c-2.7,1.6-5.3,3.1-8,4.6c-1.1,0.7-1.3,1.6-0.4,2.2c1.5,0.9,3,1.9,4.5,2.8
			C619.7,670.1,620.6,670.1,620.6,670.1z M652.3,681c-1.1,0.6-1.3,1.6-0.4,2.1c1.8,1.2,3.6,2.3,5.4,3.4c0.9,0.6,2.4,0.5,3.6-0.1
			c2.7-1.5,5.3-3,7.9-4.5c1.1-0.6,1.3-1.6,0.5-2.1c-1.8-1.1-3.6-2.3-5.4-3.5c-0.9-0.6-2.5-0.5-3.6,0.1
			C657.6,678,654.9,679.5,652.3,681z M667.6,672.4c-1.1,0.6-1.3,1.6-0.4,2.1c1.8,1.2,3.6,2.3,5.4,3.5c0.9,0.5,2.5,0.5,3.6-0.1
			c2.7-1.5,5.4-3,8.1-4.6c1.1-0.6,1.3-1.6,0.4-2.2c-1.8-1.2-3.6-2.3-5.4-3.5c-0.8-0.6-2.4-0.5-3.6,0.1
			C672.9,669.3,670.3,670.8,667.6,672.4z M692.6,658.6c0,0-0.8,0-1.9,0.7c-2.6,1.5-5.1,2.9-7.6,4.3c-1.1,0.6-1.3,1.6-0.5,2.2
			c1.7,1.1,3.4,2.2,5.1,3.3c0.9,0.6,1.7,0.5,1.8,0.5c0,0,0.9,0.1,2-0.5c2.5-1.4,5.1-2.8,7.6-4.3c1.2-0.7,1.4-1.6,0.5-2.2
			c-1.8-1.2-3.6-2.3-5.4-3.5C693.5,658.6,692.6,658.6,692.6,658.6z M709,649.4c0,0-0.8-0.1-1.9,0.6c-3,1.7-6,3.4-8.9,5.1
			c-1.2,0.6-1.4,1.6-0.5,2.2c1.8,1.2,3.6,2.4,5.4,3.5c0.8,0.6,2.5,0.5,3.6-0.1c2.9-1.7,5.9-3.3,8.9-5c1.1-0.7,1.4-1.6,0.5-2.2
			c-1.8-1.1-3.5-2.3-5.3-3.5C710,649.4,709,649.4,709,649.4z M629.8,668.8c0,0-0.9,0.1-2,0.7c-2.7,1.5-5.4,3.1-8,4.6
			c-1.1,0.6-1.2,1.6-0.3,2.1c1.3,0.9,2.7,1.7,4,2.6c0.9,0.6,1.1,0.5,1.7,0.5c0.5,0,0.9,0,2-0.6c2.6-1.5,5.3-3,8-4.6
			c1.1-0.6,1.3-1.6,0.4-2.1c-1.3-0.8-2.7-1.7-4-2.6C630.6,669,629.8,668.9,629.8,668.8z M669.8,667.4c0.6,0,0.9,0,2-0.6
			c2.7-1.5,5.5-3.1,8.2-4.7c1.1-0.6,1.3-1.6,0.5-2.2c-1.8-1.2-3.6-2.3-5.4-3.5c-0.9-0.6-2.5-0.5-3.6,0.1c-2.7,1.6-5.4,3.1-8.2,4.7
			c-1.1,0.6-1.3,1.6-0.4,2.2c1.7,1.1,3.4,2.2,5,3.3C668.9,667.2,669.1,667.4,669.8,667.4z M695.1,653.6c1.2-0.7,1.4-1.6,0.5-2.2
			c-1.8-1.2-3.6-2.4-5.4-3.5c-0.9-0.6-2.5-0.5-3.7,0.1c-2.5,1.4-5.1,2.9-7.6,4.4c-1.1,0.6-1.3,1.6-0.5,2.2c1.8,1.2,3.5,2.3,5.4,3.5
			c0.9,0.6,2.5,0.5,3.6-0.2C690,656.5,692.6,655,695.1,653.6z M727.5,635.2c1.2-0.7,1.4-1.7,0.5-2.3c-1.8-1.2-3.6-2.4-5.4-3.6
			c-0.9-0.6-2.5-0.5-3.7,0.1c-2.8,1.6-5.6,3.2-8.4,4.8c-1.1,0.6-1.3,1.7-0.5,2.2c1.8,1.2,3.6,2.4,5.4,3.6c0.9,0.6,2.5,0.5,3.7-0.1
			C721.9,638.4,724.7,636.8,727.5,635.2z M664.6,670.9c1.1-0.6,1.3-1.6,0.4-2.1c-1.8-1.2-3.6-2.3-5.4-3.5c-0.9-0.5-2.5-0.5-3.6,0.1
			c-2.7,1.5-5.3,3-8,4.5c-1.1,0.6-1.3,1.6-0.4,2.2c1.8,1.2,3.6,2.3,5.4,3.4c0.8,0.6,2.5,0.5,3.5-0.1
			C659.2,673.9,661.9,672.4,664.6,670.9z M711.6,644.2c1.1-0.6,1.4-1.6,0.5-2.2c-1.8-1.2-3.6-2.4-5.4-3.6c-0.9-0.6-2.5-0.5-3.7,0.1
			c-3,1.7-6,3.4-9,5.1c-1.1,0.6-1.3,1.7-0.5,2.2c1.7,1.1,3.3,2.2,5,3.3c0.9,0.6,2.5,0.6,3.7-0.1
			C705.4,647.5,708.5,645.9,711.6,644.2z M649.2,679.6c1.1-0.6,1.3-1.6,0.4-2.2c-1.6-1-3.2-2-4.8-3c-0.9-0.6-1.2-0.9-1.8-0.9
			c-0.6-0.1-1.1-0.1-2.2,0.5c-2.7,1.6-5.5,3.1-8.2,4.7c-1.1,0.6-1.3,1.6-0.4,2.1c1.8,1.1,3.6,2.3,5.3,3.4c0.9,0.6,2.5,0.5,3.6-0.1
			C643.9,682.6,646.6,681.1,649.2,679.6z M604.6,682.8c-1.1,0.6-1.2,1.6-0.4,2.1c1.4,0.9,2.7,1.7,4.1,2.6c0.9,0.5,2.5,0.5,3.5-0.1
			c2.6-1.5,5.3-3,8-4.5c1.1-0.6,1.2-1.6,0.4-2.1c-1.4-0.9-2.8-1.8-4.1-2.6c-0.9-0.6-2.5-0.5-3.6,0.1
			C609.9,679.8,607.3,681.3,604.6,682.8z M623.9,693.3c0,0.1,1,0.1,2-0.5c2.7-1.5,5.3-3.1,8-4.6c1.1-0.6,1.3-1.6,0.4-2.1
			c-1.8-1.1-3.6-2.3-5.4-3.4c-0.9-0.6-2.4-0.5-3.5,0.1c-2.6,1.5-5.3,3-7.9,4.5c-1.1,0.6-1.2,1.6-0.4,2.1c1.7,1,3.3,2.1,5,3.1
			C623,693.1,623.9,693.3,623.9,693.3z M714.4,616.5c0,0,1-0.5,2.1-1.2c2.8-1.6,5.6-3.3,8.5-4.9c1.1-0.7,1.4-1.7,0.5-2.3
			c-1.5-1-3-2-4.5-3c-0.8-0.6-2.5-0.5-3.7,0.1c-2.8,1.7-5.7,3.3-8.5,4.9c-1.1,0.7-1.4,1.7-0.5,2.3c1.5,1,3,2,4.5,3
			C713.7,616,714.4,616.5,714.4,616.5z M661.3,647.1c1.1-0.7,1.3-1.6,0.4-2.2c-1.5-1-3-1.9-4.5-2.9c-0.9-0.6-2.5-0.5-3.6,0.1
			c-2.8,1.6-5.5,3.1-8.2,4.7c-1.1,0.7-1.3,1.6-0.4,2.2c1.5,1,3,1.9,4.5,2.9c0.9,0.6,2.5,0.5,3.6-0.1
			C655.8,650.2,658.6,648.6,661.3,647.1z M748.6,621.3c0.8,0.6,2.5,0.5,3.7-0.1c3.3-1.9,6.6-3.8,9.9-5.6c1.1-0.7,1.4-1.7,0.5-2.3
			c-1.8-1.2-3.6-2.5-5.4-3.7c-0.9-0.6-2.5-0.5-3.7,0.1c-3.3,1.9-6.7,3.8-9.9,5.7c-1.2,0.6-1.4,1.7-0.6,2.3
			C745,618.9,746.8,620.1,748.6,621.3z M692.8,628.9c1.1-0.7,1.4-1.7,0.5-2.3c-1.4-0.9-2.8-1.8-4.2-2.8c-0.9-0.6-1.8-0.7-1.8-0.7
			c0,0-1,0-2.1,0.6c-3,1.8-6.1,3.5-9.1,5.2c-1.1,0.6-1.3,1.7-0.4,2.2c1.5,1,3,2,4.5,3c0.8,0.6,2.5,0.5,3.7-0.1
			C686.9,632.4,689.8,630.6,692.8,628.9z M676.4,638.4c1.1-0.7,1.4-1.7,0.4-2.2c-1.4-0.9-2.8-1.9-4.2-2.8c-0.9-0.6-1.6-0.6-1.7-0.7
			c0,0-1,0-2.2,0.6c-2.6,1.5-5.1,3-7.7,4.4c-1.1,0.7-1.3,1.7-0.4,2.2c1.5,1,3,2,4.5,2.9c0.9,0.6,2.5,0.5,3.6-0.1
			C671.2,641.3,673.8,639.9,676.4,638.4z M635.8,661.3c0,0,0.8,0,1.9-0.7c2.7-1.5,5.3-3.1,8-4.6c1.1-0.6,1.3-1.6,0.4-2.2
			c-1.5-0.9-3-1.9-4.5-2.9c-0.9-0.6-2.5-0.5-3.6,0.1c-2.7,1.6-5.3,3.1-8,4.6c-1.1,0.6-1.3,1.6-0.4,2.2c1.4,1,2.9,1.9,4.4,2.8
			C634.9,661.3,635.8,661.3,635.8,661.3z M708.8,619.7c1.1-0.7,1.4-1.7,0.5-2.3c-1.5-1-3-2-4.5-3c-0.9-0.6-2.5-0.5-3.7,0.1
			c-2.8,1.6-5.6,3.3-8.4,4.8c-1.1,0.7-1.4,1.7-0.5,2.3c1.5,1,3,2,4.5,3c0.9,0.6,2.5,0.5,3.7-0.2C703.2,622.9,706,621.3,708.8,619.7z
			 M745.6,611c1.1-0.7,1.4-1.7,0.5-2.3c-1.4-0.9-2.8-1.9-4.1-2.8c-0.9-0.6-2.6-0.5-3.8,0.1c-2.9,1.6-5.7,3.3-8.5,4.9
			c-1.1,0.7-1.4,1.7-0.5,2.3c1.3,0.9,2.8,1.9,4.1,2.8c0.9,0.6,2.5,0.5,3.7-0.1C739.9,614.3,742.7,612.7,745.6,611z M605.7,736.8
			c-0.2,0-0.5,0-0.8,0C605.1,736.8,605.4,736.8,605.7,736.8c0.9-0.1,1.9-0.4,2.8-0.8c15.5-8.6,31.2-17.3,47.1-26.2
			c15.9-8.9,32-17.8,48.3-26.8c16.5-9.2,33.2-18.5,50.1-27.9c17-9.4,34.1-19,51.5-28.6c-17.4,9.6-34.5,19.2-51.5,28.6
			c-16.9,9.4-33.6,18.7-50.1,27.9c-16.3,9-32.4,18-48.3,26.8c-15.9,8.8-31.5,17.5-47.1,26.2C607.6,736.4,606.6,736.7,605.7,736.8z"
			/>
		<path id="XMLID_117_" fill-rule="evenodd" clip-rule="evenodd" fill="#CACDCD" d="M540.6,700.7c0.9,6.1-3.1,11-9,11.1
			c-5.9,0-11.4-4.9-12.3-11c-0.9-6.1,3.1-11,9-11.1C534.2,689.7,539.7,694.6,540.6,700.7"/>
		<path id="XMLID_116_" fill-rule="evenodd" clip-rule="evenodd" fill="#E5DFDA" d="M535.4,701.9c0.6,4.2-2.1,7.6-6.1,7.6
			c-4,0-7.8-3.4-8.4-7.5c-0.6-4.2,2.1-7.6,6.1-7.6C531,694.3,534.8,697.7,535.4,701.9"/>
		<path id="XMLID_115_" fill-rule="evenodd" clip-rule="evenodd" fill="#E7E2DD" d="M520.7,700.8c0-3.6,2.5-6.3,6.1-6.4
			C523.3,694.4,520.7,697.2,520.7,700.8"/>
		<path id="XMLID_114_" fill-rule="evenodd" clip-rule="evenodd" fill="#EDE8E5" d="M525.9,708.7c-2.6-1.2-4.6-3.8-5-6.7
			c-0.1-0.4-0.1-0.8-0.1-1.2c0-3.6,2.5-6.3,6.1-6.4c0,0,0.1,0,0.1,0c0,0,0,0,0,0c1,0,2,0.2,3,0.6
			C528.7,699.1,527.2,704.3,525.9,708.7"/>
		<path id="XMLID_113_" fill-rule="evenodd" clip-rule="evenodd" fill="#B8BBBB" d="M744,462.8c3.7,2.1,44.3,20.5,47.5,21.3
			c3.1,0.7,8.1,0.6,16.6-4c8.5-4.6,5.8-8.7,5.8-8.7l-23-9.7l-38.5-5.8c0,0-5.8,1.6-8.3,3.6C742.8,460.6,742.8,462.1,744,462.8"/>
		<path id="XMLID_112_" fill-rule="evenodd" clip-rule="evenodd" fill="#B8BBBB" d="M812.9,474.8c1.8-1.7,1.7-4.6-0.2-6.1
			c-22.2-18.1-44.5-18.8-45.4-18.8c0,0-6.4-0.4-14.9,4c-4.8,2.5-7.5,4.6-9,6c-0.7,0.7-0.3,1.8,0.6,2c7,1.1,25.3,3.4,44.4,19.5
			c1.3,1.1,3,1.6,4.7,1.5c2.7-0.2,7.1-1,12.5-3.3C809.1,477.9,811.4,476.2,812.9,474.8"/>
		<path id="XMLID_111_" fill-rule="evenodd" clip-rule="evenodd" fill="#B8BBBB" d="M743.1,461.1c-0.2-0.4-0.1-0.9,0.2-1.3
			C743,460.2,742.9,460.7,743.1,461.1L743.1,461.1z"/>
		<path id="XMLID_110_" fill-rule="evenodd" clip-rule="evenodd" fill="#B8BBBB" d="M745.6,462.1c-0.6-0.1-1.1-0.2-1.6-0.3
			c-0.4-0.1-0.7-0.3-0.9-0.7h0c0.1,0.3,0.4,0.6,0.9,0.7C744.5,461.9,745,462,745.6,462.1"/>
		<path id="XMLID_109_" fill-rule="evenodd" clip-rule="evenodd" fill="#B8BBBB" d="M752.4,453.8c7.2-3.7,12.9-4,14.4-4
			c0.3,0,0.4,0,0.4,0c0.1,0,0.3,0,0.6,0c-0.3,0-0.6,0-0.6,0c0,0-0.1,0-0.4,0C765.3,449.9,759.6,450.1,752.4,453.8"/>
		<path fill-rule="evenodd" clip-rule="evenodd" fill="#B8BBBB" d="M812.1,468.2C812.1,468.2,812.1,468.2,812.1,468.2
			C812.1,468.2,812.1,468.2,812.1,468.2 M812.3,468.3C812.3,468.3,812.3,468.3,812.3,468.3C812.3,468.3,812.3,468.3,812.3,468.3z
			 M812.3,468.4C812.3,468.4,812.3,468.4,812.3,468.4C812.3,468.4,812.3,468.4,812.3,468.4z M812.4,468.4
			C812.4,468.4,812.4,468.4,812.4,468.4C812.4,468.4,812.4,468.4,812.4,468.4z M812.5,468.5C812.5,468.5,812.4,468.5,812.5,468.5
			C812.4,468.5,812.5,468.5,812.5,468.5L812.5,468.5z M812.5,468.5C812.5,468.5,812.5,468.5,812.5,468.5
			C812.5,468.5,812.5,468.5,812.5,468.5z M812.6,468.6C812.6,468.6,812.6,468.6,812.6,468.6C812.6,468.6,812.6,468.6,812.6,468.6
			L812.6,468.6z M812.7,468.7C812.7,468.6,812.6,468.6,812.7,468.7C812.6,468.6,812.7,468.6,812.7,468.7L812.7,468.7z"/>
		<path id="XMLID_100_" fill-rule="evenodd" clip-rule="evenodd" fill="#B8BBBB" d="M760.3,457.1c0.6,0,1.1-0.1,1.6-0.4l2.1-1.2
			c0.8-0.4,0.6-1.3-0.3-1.6l-2.7-0.8c-0.2-0.1-0.4-0.1-0.5-0.1c-0.3,0-0.6,0.1-0.9,0.2l-2.6,1.5c-0.8,0.4-0.6,1.3,0.3,1.6l2,0.6
			C759.6,457.1,760,457.1,760.3,457.1"/>
		<path id="XMLID_99_" fill-rule="evenodd" clip-rule="evenodd" fill="#CACDCD" d="M750.6,465.9c3.7,2.1,44.3,20.5,47.5,21.3
			c3.1,0.7,8.1,0.6,16.6-4c8.5-4.6,5.8-8.7,5.8-8.7l-23-9.7l-38.5-5.8c0,0-5.8,1.6-8.3,3.6C749.3,463.7,749.3,465.2,750.6,465.9"/>
		<path id="XMLID_98_" fill-rule="evenodd" clip-rule="evenodd" fill="#F0F1F1" d="M819.4,477.9c1.8-1.7,1.7-4.6-0.2-6.1
			c-22.2-18.1-44.5-18.8-45.4-18.8c0,0-6.4-0.4-14.9,4c-4.8,2.5-7.5,4.6-9,6c-0.7,0.7-0.3,1.8,0.6,2c7,1.1,25.3,3.4,44.4,19.5
			c1.3,1.1,3,1.6,4.7,1.5c2.7-0.2,7.1-1,12.5-3.3C815.6,480.9,817.9,479.3,819.4,477.9"/>
		<path id="XMLID_97_" fill-rule="evenodd" clip-rule="evenodd" fill="#D3D1CE" d="M749.6,464.2c-0.2-0.4-0.1-0.9,0.2-1.3
			C749.5,463.3,749.4,463.8,749.6,464.2L749.6,464.2z"/>
		<path id="XMLID_96_" fill-rule="evenodd" clip-rule="evenodd" fill="#CACDCD" d="M752.1,465.1c-0.6-0.1-1.1-0.2-1.6-0.3
			c-0.4-0.1-0.7-0.3-0.9-0.7h0c0.1,0.3,0.4,0.6,0.9,0.7C751,464.9,751.5,465,752.1,465.1"/>
		<path id="XMLID_95_" fill-rule="evenodd" clip-rule="evenodd" fill="#D3D1CE" d="M758.9,456.9c7.2-3.7,12.9-4,14.4-4
			c0.3,0,0.4,0,0.4,0c0.1,0,0.3,0,0.6,0c-0.3,0-0.6,0-0.6,0c0,0-0.1,0-0.4,0C771.8,452.9,766.1,453.2,758.9,456.9"/>
		<path fill-rule="evenodd" clip-rule="evenodd" fill="#FFFDFD" d="M818.6,471.3C818.6,471.3,818.6,471.3,818.6,471.3
			C818.6,471.3,818.6,471.3,818.6,471.3 M818.8,471.4C818.8,471.4,818.8,471.4,818.8,471.4C818.8,471.4,818.8,471.4,818.8,471.4z
			 M818.8,471.5C818.8,471.4,818.8,471.4,818.8,471.5C818.8,471.4,818.8,471.4,818.8,471.5z M818.9,471.5
			C818.9,471.5,818.9,471.5,818.9,471.5C818.9,471.5,818.9,471.5,818.9,471.5z M819,471.6C819,471.6,819,471.5,819,471.6
			C819,471.5,819,471.6,819,471.6L819,471.6z M819.1,471.6C819,471.6,819,471.6,819.1,471.6C819,471.6,819,471.6,819.1,471.6z
			 M819.1,471.7C819.1,471.7,819.1,471.6,819.1,471.7C819.1,471.6,819.1,471.7,819.1,471.7L819.1,471.7z M819.2,471.7
			C819.2,471.7,819.2,471.7,819.2,471.7C819.2,471.7,819.2,471.7,819.2,471.7L819.2,471.7z"/>
		<path id="XMLID_86_" fill-rule="evenodd" clip-rule="evenodd" fill="#DED7D3" d="M766.8,460.2c0.6,0,1.1-0.1,1.6-0.4l2.1-1.2
			c0.8-0.4,0.6-1.3-0.3-1.6l-2.7-0.8c-0.2-0.1-0.4-0.1-0.5-0.1c-0.3,0-0.6,0.1-0.9,0.2l-2.6,1.5c-0.8,0.4-0.6,1.3,0.3,1.6l2,0.6
			C766.1,460.1,766.5,460.2,766.8,460.2"/>
		<polygon id="XMLID_85_" fill-rule="evenodd" clip-rule="evenodd" fill="#B8BBBB" points="766.6,532.5 792.2,517.8 913,586.9 
			887.4,601.7 861.8,616.5 740.9,547.4 		"/>
		<path id="XMLID_84_" fill-rule="evenodd" clip-rule="evenodd" fill="#2D3534" d="M756.9,540.4L756.9,540.4
			c0.1,0.3,0.2,0.5,0.3,0.7l0.1,0.1c0.1,0.2,0.3,0.4,0.5,0.6l0.5,0.4l0.4,0.3L866,602c0.3,0.2,0.6,0.3,1,0.5l0.3,0.1
			c0.2,0.1,0.4,0.1,0.6,0.2c0.2,0.1,0.5,0.1,0.7,0.2c0.3,0.1,0.6,0.1,0.8,0.1l0.2,0c0.4,0,0.8,0.1,1.2,0.1h0.2c0.4,0,0.8,0,1.1-0.1
			l0.2,0c0.4,0,0.7-0.1,1.1-0.2l0.2,0c0.3-0.1,0.6-0.2,1-0.3l0.2-0.1c0.4-0.1,0.7-0.3,1-0.5l175.5-98.5c1.4-0.8,2-1.8,2-2.8l0,3.9
			c0,1-0.7,2.1-2,2.8L875.8,608.7c-0.3,0.2-0.6,0.3-1,0.5l-0.1,0l-0.2,0.1c-0.2,0.1-0.4,0.1-0.6,0.2l-0.3,0.1l-0.2,0l-0.2,0
			c-0.2,0-0.5,0.1-0.7,0.1l-0.2,0l-0.2,0l-0.3,0c-0.2,0-0.5,0-0.7,0H871l-0.2,0h-0.3c-0.3,0-0.5,0-0.8-0.1l-0.1,0l-0.2,0
			c-0.2,0-0.4,0-0.6-0.1l-0.2-0.1c-0.2,0-0.5-0.1-0.7-0.2l-0.4-0.1l-0.3-0.1l-0.3-0.1c-0.3-0.1-0.7-0.3-1-0.5l-107.3-62.4l-0.1,0
			l-0.3-0.3l-0.5-0.4l0,0l-0.4-0.5l-0.1-0.1l-0.1-0.1l-0.1-0.2l-0.2-0.4l0-0.1l0-0.1l-0.1-0.3l0-0.4l0-0.1l0-3.8
			C756.7,539.9,756.8,540.2,756.9,540.4"/>
		<path id="XMLID_83_" fill-rule="evenodd" clip-rule="evenodd" fill="#3E5969" d="M758.8,537.1c-2.7,1.6-2.7,4.1,0,5.6L866,605
			c2.7,1.6,7,1.6,9.7,0l175.5-101.3c2.7-1.6,2.7-4.1,0-5.6L944,435.7c-2.7-1.6-7-1.6-9.7,0L758.8,537.1z"/>
		<path id="XMLID_82_" fill-rule="evenodd" clip-rule="evenodd" fill="#484E4D" d="M758.8,537.1c-2.7,1.6-2.7,4.1,0,5.6L866,605
			c2.7,1.6,7,1.6,9.7,0l175.5-101.3c2.7-1.6,2.7-4.1,0-5.6L944,435.7c-2.7-1.6-7-1.6-9.7,0L758.8,537.1z"/>
		<path id="XMLID_81_" fill-rule="evenodd" clip-rule="evenodd" fill="#3E4443" d="M859.2,601.1l6.8,3.9c2.7,1.6,7,1.6,9.7,0
			l175.5-101.3c2.7-1.6,2.7-4.1,0-5.6l-6-3.5L859.2,601.1z"/>
		<path id="XMLID_80_" fill-rule="evenodd" clip-rule="evenodd" fill="#3E4443" d="M758.8,537.1c-2.7,1.6-2.7,4.1,0,5.6l10.5,6.1
			l186.1-106.5l-11.3-6.6c-2.7-1.6-7-1.6-9.7,0L758.8,537.1z"/>
		<path id="XMLID_79_" fill-rule="evenodd" clip-rule="evenodd" fill="#2F3635" d="M802.9,520.9c-2.4,1.4-2.4,3.6,0,4.9l93.7,54.5
			c2.3,1.4,6.1,1.4,8.5,0l132-76.7c2.4-1.4,2.4-3.6,0-4.9l-93.7-54.5c-2.3-1.4-6.1-1.4-8.5,0L802.9,520.9z"/>
		<path id="XMLID_78_" fill-rule="evenodd" clip-rule="evenodd" fill="#2D3534" d="M809.3,562.7l0.1,0.5l0.1,0.5
			c0.1,0.2,0.2,0.5,0.3,0.7l0.1,0.1c0.1,0.3,0.3,0.5,0.5,0.8l0.1,0.1c0.2,0.2,0.3,0.5,0.5,0.7l0.1,0.1c0.2,0.2,0.4,0.5,0.7,0.7
			l0.5,0.4l0.5,0.4c0.2,0.1,0.4,0.3,0.6,0.4c0.2,0.1,0.4,0.3,0.6,0.4c0.4,0.2,0.7,0.4,1.1,0.6l0.3,0.1c0.3,0.2,0.7,0.3,1,0.4
			l0.1,0.1c0.4,0.1,0.8,0.3,1.2,0.4c0.3,0.1,0.6,0.2,0.8,0.2c0.2,0.1,0.4,0.1,0.6,0.2c0.3,0.1,0.6,0.1,0.9,0.2
			c0.2,0,0.4,0.1,0.7,0.1l0.3,0c0.4,0.1,0.8,0.1,1.1,0.2l0.3,0c0.2,0,0.4,0,0.7,0.1c0.4,0,0.7,0.1,1.1,0.1c0.2,0,0.5,0,0.7,0
			c0.3,0,0.6,0,0.9,0c0.2,0,0.5,0,0.7,0c0.3,0,0.6,0,0.8,0c0.3,0,0.5,0,0.8-0.1c0.3,0,0.5-0.1,0.8-0.1c0.2,0,0.5-0.1,0.7-0.1
			c0.3,0,0.6-0.1,0.9-0.2c0.2,0,0.5-0.1,0.7-0.1c0.3-0.1,0.7-0.2,1-0.2c0.2-0.1,0.4-0.1,0.7-0.2l0.3-0.1c0.3-0.1,0.7-0.2,1-0.3
			l0.3-0.1c0.3-0.1,0.6-0.2,0.9-0.4l0.4-0.2c0.4-0.2,0.8-0.4,1.2-0.6c3.2-1.9,4.8-4.3,4.8-6.7l0,2.3c0,2.4-1.6,4.9-4.8,6.7
			c-0.4,0.2-0.8,0.4-1.2,0.6l-0.4,0.2c-0.2,0.1-0.5,0.2-0.7,0.3l-0.1,0l-0.3,0.1c-0.3,0.1-0.7,0.2-1,0.3l-0.3,0.1l-0.2,0.1l-0.4,0.1
			c-0.3,0.1-0.7,0.2-1,0.3l-0.3,0.1l-0.4,0.1c-0.3,0.1-0.6,0.1-0.9,0.2l-0.3,0.1l-0.4,0c-0.3,0-0.5,0.1-0.8,0.1l-0.4,0l-0.4,0
			c-0.3,0-0.6,0-0.8,0l-0.4,0l-0.3,0c-0.3,0-0.6,0-0.9,0l-0.4,0l-0.3,0c-0.4,0-0.7,0-1.1-0.1l-0.4,0l-0.2,0l-0.3,0
			c-0.4,0-0.8-0.1-1.1-0.2l-0.3,0l-0.1,0l-0.5-0.1c-0.3-0.1-0.6-0.1-0.9-0.2c-0.2-0.1-0.4-0.1-0.6-0.2c-0.3-0.1-0.6-0.2-0.8-0.2
			l-0.2-0.1c-0.3-0.1-0.7-0.2-1-0.4l-0.1-0.1c-0.4-0.1-0.7-0.3-1-0.4l-0.3-0.1c-0.4-0.2-0.7-0.4-1.1-0.6l-0.2-0.1l-0.4-0.3
			c-0.2-0.1-0.4-0.3-0.6-0.4l-0.5-0.4l-0.5-0.4l-0.1-0.1c-0.2-0.2-0.4-0.4-0.6-0.6l-0.1-0.1l-0.3-0.4l-0.2-0.3l-0.1-0.1
			c-0.1-0.2-0.3-0.4-0.4-0.6l-0.1-0.2l-0.1-0.1c-0.1-0.2-0.2-0.4-0.3-0.6l0-0.1l-0.1-0.5l-0.1-0.3l0-0.1l0-0.1
			c0-0.2-0.1-0.5-0.1-0.7l0-0.1l0-2.3c0,0.3,0,0.6,0.1,0.8L809.3,562.7z"/>
		<path id="XMLID_77_" fill-rule="evenodd" clip-rule="evenodd" fill="#3E4443" d="M814.1,555c-6.4,3.7-6.4,9.7-0.1,13.4
			c6.4,3.7,16.7,3.7,23.1,0c6.4-3.7,6.4-9.7,0.1-13.4C830.8,551.3,820.5,551.3,814.1,555"/>
		<path id="XMLID_76_" fill-rule="evenodd" clip-rule="evenodd" fill="#484E4D" d="M816.2,569.5c6.4,2.6,15.2,2.3,21-1.1
			c5.8-3.3,6.4-8.5,1.8-12.2c-6.4-2.6-15.3-2.3-21,1C812.1,560.6,811.6,565.8,816.2,569.5"/>
		<path id="XMLID_75_" fill-rule="evenodd" clip-rule="evenodd" fill="#595857" d="M1020.1,496.7l0.3-0.6l5.8,3.4
			c0.7,0.4,0.7,1.5,0,1.9l-6.2,3.6l-0.3-0.6l5.2-3c0.7-0.4,0.7-1.5,0-1.9L1020.1,496.7z"/>
		<path id="XMLID_74_" fill-rule="evenodd" clip-rule="evenodd" fill="#595857" d="M900.2,572.3c0.6,0.4,1.4,0.4,2,0l3.5-2l0.3,0.6
			l-3.9,2.2c-0.6,0.4-1.4,0.4-2,0l-3.6-2.1l0.3-0.6L900.2,572.3z"/>
		<path id="XMLID_73_" fill-rule="evenodd" clip-rule="evenodd" fill="#595857" d="M816.8,520.4l0.3,0.6l-4,2.3
			c-0.3,0.2-0.3,0.6,0,0.8l2.4,1.4l-0.3,0.6l-3.5-2c-0.3-0.2-0.3-0.6,0-0.8L816.8,520.4z"/>
		<path id="XMLID_72_" fill-rule="evenodd" clip-rule="evenodd" fill="#595857" d="M943.1,453.7l-0.3,0.6l-4-2.3
			c-0.6-0.4-1.4-0.4-2,0l-4,2.3l-0.3-0.6l4.3-2.5c0.6-0.4,1.4-0.4,2,0L943.1,453.7z"/>
		<path fill-rule="evenodd" clip-rule="evenodd" fill="#2D3534" d="M805.4,545.6c0.9,0.4,0.9,1.6,0,2l-6.1,3.6l0,0
			c-0.3,0.1-0.6,0.1-0.9,0l0,0l-3.1-1.8c-0.9-0.4-0.9-1.6,0-2l6.1-3.6l0,0c0.3-0.1,0.6-0.1,0.9,0l0,0L805.4,545.6z M800,542.5
			c0.9,0.4,0.9,1.6,0,2l-6.1,3.6l0,0c-0.3,0.1-0.6,0.1-0.9,0l0,0l-3.1-1.8c-0.9-0.4-0.9-1.6,0-2l6.1-3.6l0,0c0.3-0.1,0.6-0.1,0.9,0
			l0,0L800,542.5z M794.5,539.4c0.9,0.4,0.9,1.6,0,2l-6.1,3.6l0,0c-0.3,0.1-0.6,0.1-0.9,0l0,0l-3.1-1.8c-0.9-0.4-0.9-1.6,0-2
			l6.1-3.6l0,0c0.3-0.1,0.6-0.1,0.9,0l0,0L794.5,539.4z M789,536.2c0.9,0.4,0.9,1.6,0,2l-6.1,3.6l0,0c-0.3,0.1-0.6,0.1-0.9,0l0,0
			l-3.1-1.8c-0.9-0.4-0.9-1.6,0-2l6.1-3.6l0,0c0.3-0.1,0.6-0.1,0.9,0l0,0L789,536.2z"/>
		<path id="XMLID_67_" fill-rule="evenodd" clip-rule="evenodd" fill="#3E4443" d="M785.1,534.8l-6.1,3.6c-0.6,0.3-0.6,1.1,0,1.4
			l3.1,1.8c0.2,0.1,0.4,0.1,0.6,0l6.1-3.6c0.6-0.3,0.6-1.1,0-1.4l-3.1-1.8C785.5,534.7,785.3,534.7,785.1,534.8"/>
		<path id="XMLID_66_" fill-rule="evenodd" clip-rule="evenodd" fill="#3E4443" d="M790.5,537.9l-6.1,3.6c-0.6,0.3-0.6,1.1,0,1.4
			l3.1,1.8c0.2,0.1,0.4,0.1,0.6,0l6.1-3.6c0.6-0.3,0.6-1.1,0-1.4l-3.1-1.8C791,537.8,790.7,537.8,790.5,537.9"/>
		<path id="XMLID_65_" fill-rule="evenodd" clip-rule="evenodd" fill="#3E4443" d="M796,541l-6.1,3.6c-0.6,0.3-0.6,1.1,0,1.4
			l3.1,1.8c0.2,0.1,0.4,0.1,0.6,0l6.1-3.6c0.6-0.3,0.6-1.1,0-1.4l-3.1-1.8C796.5,540.9,796.2,540.9,796,541"/>
		<path id="XMLID_64_" fill-rule="evenodd" clip-rule="evenodd" fill="#3E4443" d="M801.5,544.1l-6.1,3.6c-0.6,0.3-0.6,1.1,0,1.4
			l3.1,1.8c0.2,0.1,0.4,0.1,0.6,0l6.1-3.6c0.6-0.3,0.6-1.1,0-1.4l-3.1-1.8C801.9,544.1,801.7,544.1,801.5,544.1"/>
		<path id="XMLID_63_" fill-rule="evenodd" clip-rule="evenodd" fill="#302F2F" d="M819.6,558.3c-3.3,1.9-3.3,5,0,7
			c3.3,1.9,8.7,1.9,12,0c3.3-1.9,3.3-5,0-7C828.3,556.3,823,556.3,819.6,558.3"/>
		<path fill-rule="evenodd" clip-rule="evenodd" fill="#2D3534" d="M874.9,586.3c0.9,0.4,0.9,1.6,0,2l-6.1,3.6l0,0
			c-0.3,0.1-0.6,0.1-0.9,0l0,0l-3.1-1.8c-0.9-0.4-0.9-1.6,0-2l6.1-3.6l0,0c0.3-0.1,0.6-0.1,0.9,0l0,0L874.9,586.3z M869.4,583.1
			c0.9,0.4,0.9,1.6,0,2l-6.1,3.6l0,0c-0.3,0.1-0.6,0.1-0.9,0l0,0l-3.1-1.8c-0.9-0.4-0.9-1.6,0-2l6.1-3.6l0,0c0.3-0.1,0.6-0.1,0.9,0
			l0,0L869.4,583.1z M864,580c0.9,0.4,0.9,1.6,0,2l-6.1,3.6l0,0c-0.3,0.1-0.6,0.1-0.9,0l0,0l-3.1-1.8c-0.9-0.4-0.9-1.6,0-2l6.1-3.6
			l0,0c0.3-0.1,0.6-0.1,0.9,0l0,0L864,580z M858.5,576.9c0.9,0.4,0.9,1.6,0,2l-6.1,3.6l0,0c-0.3,0.1-0.6,0.1-0.9,0l0,0l-3.1-1.8
			c-0.9-0.4-0.9-1.6,0-2l6.1-3.6l0,0c0.3-0.1,0.6-0.1,0.9,0l0,0L858.5,576.9z"/>
		<path id="XMLID_58_" fill-rule="evenodd" clip-rule="evenodd" fill="#3E4443" d="M854.5,575.4l-6.1,3.6c-0.6,0.3-0.6,1.1,0,1.4
			l3.1,1.8c0.2,0.1,0.4,0.1,0.6,0l6.1-3.6c0.6-0.3,0.6-1.1,0-1.4l-3.1-1.8C855,575.3,854.7,575.3,854.5,575.4"/>
		<path id="XMLID_57_" fill-rule="evenodd" clip-rule="evenodd" fill="#3E4443" d="M860,578.6l-6.1,3.6c-0.6,0.3-0.6,1.1,0,1.4
			l3.1,1.8c0.2,0.1,0.4,0.1,0.6,0l6.1-3.6c0.6-0.3,0.6-1.1,0-1.4l-3.1-1.8C860.5,578.5,860.2,578.5,860,578.6"/>
		<path id="XMLID_56_" fill-rule="evenodd" clip-rule="evenodd" fill="#3E4443" d="M865.5,581.7l-6.1,3.6c-0.6,0.3-0.6,1.1,0,1.4
			l3.1,1.8c0.2,0.1,0.4,0.1,0.6,0l6.1-3.6c0.6-0.3,0.6-1.1,0-1.4l-3.1-1.8C865.9,581.6,865.7,581.6,865.5,581.7"/>
		<path id="XMLID_55_" fill-rule="evenodd" clip-rule="evenodd" fill="#3E4443" d="M871,584.8l-6.1,3.6c-0.6,0.3-0.6,1.1,0,1.4
			l3.1,1.8c0.2,0.1,0.4,0.1,0.6,0l6.1-3.6c0.6-0.3,0.6-1.1,0-1.4l-3.1-1.8C871.4,584.7,871.2,584.7,871,584.8"/>
		<path id="XMLID_54_" fill-rule="evenodd" clip-rule="evenodd" fill="#5D6261" d="M820.1,558.5c-3.1,1.8-3.1,4.6,0,6.4
			c3,1.8,8,1.8,11.1,0c3.1-1.8,3.1-4.6,0-6.4C828.1,556.8,823.2,556.8,820.1,558.5"/>
		<polygon id="XMLID_53_" fill-rule="evenodd" clip-rule="evenodd" fill="#B8BBBB" points="763.8,312.9 775.3,306.3 926,393 
			914.4,399.6 902.9,406.3 752.2,319.6 		"/>
		<polygon id="XMLID_52_" fill-rule="evenodd" clip-rule="evenodd" fill="#484E4D" points="1004.9,343.6 862.4,260.7 765.1,316.9 
			907.7,399.7 		"/>
		<polygon id="XMLID_51_" fill-rule="evenodd" clip-rule="evenodd" fill="#484E4D" points="998.6,328.3 1001.8,326.5 1001.8,345.4 
			998.6,343.7 		"/>
		<polygon id="XMLID_50_" fill-rule="evenodd" clip-rule="evenodd" fill="#484E4D" points="1004.9,324.7 862.4,241.8 765.1,298 
			907.7,380.8 		"/>
		<polygon id="XMLID_49_" fill-rule="evenodd" clip-rule="evenodd" fill="#2D3534" points="1004.9,324.7 907.7,380.8 907.7,384.6 
			1004.9,328.3 		"/>
		<polygon id="XMLID_48_" fill-rule="evenodd" clip-rule="evenodd" fill="#2D3534" points="907.7,384.6 765.1,301.8 765.1,298 
			907.7,380.8 907.7,380.8 		"/>
		<polygon id="XMLID_47_" fill-rule="evenodd" clip-rule="evenodd" fill="#2D3534" points="1004.9,343.5 907.7,399.7 907.7,403.5 
			1004.9,347.2 		"/>
		<polygon id="XMLID_46_" fill-rule="evenodd" clip-rule="evenodd" fill="#2D3534" points="907.7,403.5 765.1,320.7 765.1,316.8 
			907.7,399.7 907.7,399.7 		"/>
		<polygon id="XMLID_45_" fill-rule="evenodd" clip-rule="evenodd" fill="#2D3534" points="1004.9,324.7 1001.8,326.5 1001.8,349 
			1004.9,347.2 		"/>
		<polygon id="XMLID_44_" fill-rule="evenodd" clip-rule="evenodd" fill="#DBD2D1" points="998.6,331.9 907.7,384.6 907.7,396.2 
			998.6,343.7 		"/>
		<polygon id="XMLID_43_" fill-rule="evenodd" clip-rule="evenodd" fill="#D2C8C6" points="770.4,304.8 907.8,384.6 907.8,396.2 
			770.4,316.6 		"/>
		<polygon id="XMLID_42_" fill-rule="evenodd" clip-rule="evenodd" fill="#72190A" points="988.9,333.9 988.9,337.7 992.3,335.7 
			992.3,331.9 		"/>
		<polygon id="XMLID_41_" fill-rule="evenodd" clip-rule="evenodd" fill="#8C200C" points="846.3,251.1 988.9,333.9 992.3,331.9 
			849.7,249.1 		"/>
		<path id="XMLID_40_" fill-rule="evenodd" clip-rule="evenodd" fill="#B8BBBB" d="M399,622.9c24,0,43.4,9,43.4,20.2
			c0,11.2-19.4,20.2-43.4,20.2c-24,0-43.4-9-43.4-20.2C355.6,632,375,622.9,399,622.9"/>
		<path id="XMLID_39_" fill-rule="evenodd" clip-rule="evenodd" fill="#BCBEBD" d="M441.1,588.8l0-1.6l0,0.1v-0.1
			c0,0-63.8,0.2-63.4-0.2l0,59.1h0c0.3,4.5,3.4,9,9.3,12.4c12.4,7.2,32.5,7.2,44.8,0c5.9-3.4,9-7.9,9.2-12.4h0V588.8z"/>
		<path id="XMLID_38_" fill-rule="evenodd" clip-rule="evenodd" fill="#CDCFCA" d="M416.8,587.2c-18,0-39.3,0-39-0.2l0,59.1h0
			c0.3,4.5,3.4,9,9.3,12.4c8.1,4.7,19.4,6.3,29.7,4.9V587.2z"/>
		<path id="XMLID_37_" fill-rule="evenodd" clip-rule="evenodd" fill="#FCFAFF" d="M431.8,574.1c12.4,7.2,12.5,18.8,0.1,26
			c-12.3,7.2-32.4,7.2-44.8,0c-12.4-7.2-12.5-18.8-0.1-26C399.3,567,419.3,567,431.8,574.1"/>
		<path id="XMLID_36_" fill-rule="evenodd" clip-rule="evenodd" fill="#CDCFCA" d="M428.6,576c10.6,6.1,10.7,16.1,0.1,22.2
			c-10.6,6.1-27.8,6.1-38.4,0c-10.6-6.1-10.7-16.1-0.1-22.2C400.7,569.9,417.9,569.8,428.6,576"/>
		<path id="XMLID_35_" fill-rule="evenodd" clip-rule="evenodd" fill="#412F25" d="M428.6,585.9c-10.6-6.1-27.8-6.1-38.4,0
			c-3.1,1.8-5.2,3.9-6.5,6.1c1.3,2.3,3.5,4.4,6.6,6.2c10.6,6.1,27.8,6.1,38.4,0c3.1-1.8,5.2-3.9,6.5-6.1
			C433.9,589.8,431.7,587.7,428.6,585.9"/>
		<path id="XMLID_34_" fill-rule="evenodd" clip-rule="evenodd" fill="#523C2E" d="M384.7,593.6c1.3,1.7,3.2,3.3,5.6,4.7
			c10.6,6.1,27.8,6.1,38.4,0c2.4-1.4,4.2-2.9,5.5-4.6c-1.3-1.7-3.2-3.3-5.6-4.7c-10.6-6.1-27.8-6.1-38.4,0
			C387.8,590.3,386,591.9,384.7,593.6"/>
		<path id="XMLID_33_" fill-rule="evenodd" clip-rule="evenodd" fill="#DADCDA" d="M450.7,643.6L450.7,643.6c-0.1,0-0.3,0-0.4,0l0,0
			c-0.1,0-0.3,0-0.5-0.1l0,0c-0.2-0.1-0.3-0.1-0.5-0.2l-14.5-8.4l-5.6,3.2l14.5,8.4l0.1,0l0.1,0.1l0.1,0l0.1,0l0.1,0l0,0l0,0l0.1,0
			l0.1,0l0.1,0l0.1,0l0.1,0h0l0,0l0.1,0l0.1,0l0.1,0l0,0l0,0l0.2,0l0.2-0.1l5.6-3.2L450.7,643.6z"/>
		<path id="XMLID_32_" fill-rule="evenodd" clip-rule="evenodd" fill="#CDCFCA" d="M443.8,617.1c3.9,2.2,7,7.6,6.9,12l-0.1,18.6
			c0,4.4-3.1,6.2-7,4l-14.5-8.4l0-5.2l14.5,8.4c1.4,0.8,2.5,0.2,2.5-1.4l0.1-18.6c0-1.6-1.1-3.5-2.5-4.3l-14.5-8.4l0-5.2
			L443.8,617.1z"/>
		<path id="XMLID_31_" fill-rule="evenodd" clip-rule="evenodd" fill="#FCFAFF" d="M456.3,625.6l0-0.3l0-0.2l0-0.1l0-0.1l0-0.3
			l0-0.4l0,0l0,0l-0.1-0.3l-0.1-0.4l0-0.1l0-0.1l0-0.2l-0.1-0.4l-0.1-0.3l0,0l0,0l-0.1-0.4l-0.1-0.4l0-0.1l0-0.1l-0.1-0.2l-0.1-0.3
			l-0.1-0.2l0,0l0,0l-0.2-0.3l-0.2-0.4l0-0.1l0-0.1l-0.2-0.3l-0.2-0.4l-0.1-0.2l0-0.1l-0.2-0.3c-0.1-0.2-0.2-0.3-0.3-0.4l0-0.1
			c-0.1-0.2-0.3-0.4-0.4-0.6L453,617l-0.3-0.3l0,0l0,0l-0.3-0.3l-0.3-0.3l0,0l0,0l-0.2-0.2l-0.3-0.3l-0.1-0.1l-0.1-0.1l-0.1-0.1
			L451,615l-0.1-0.1l-0.1-0.1l-0.1-0.1l-0.3-0.2l-0.2-0.2l0,0l0,0l-0.3-0.2l-0.3-0.2l-0.1,0l-14.5-8.4l-5.6,3.2l14.5,8.4
			c0.2,0.1,0.5,0.3,0.7,0.4l0,0c0.2,0.1,0.4,0.3,0.6,0.5l0.1,0.1c0.2,0.2,0.4,0.3,0.6,0.5l0.1,0.1c0.2,0.2,0.4,0.4,0.6,0.6l0,0.1
			c0.2,0.2,0.4,0.4,0.6,0.7l0,0c0.2,0.2,0.4,0.5,0.6,0.7l0,0l0,0c0.2,0.2,0.3,0.5,0.5,0.7c0.1,0.1,0.2,0.3,0.3,0.5l0.2,0.4l0.1,0.2
			c0.1,0.2,0.2,0.4,0.3,0.6l0,0.1c0.1,0.3,0.3,0.5,0.4,0.8l0,0c0.1,0.3,0.2,0.5,0.3,0.8l0,0.1c0.1,0.3,0.2,0.6,0.3,0.8l0,0.1
			c0.1,0.3,0.1,0.5,0.2,0.8l0,0.1c0.1,0.3,0.1,0.5,0.2,0.8l0,0c0,0.3,0.1,0.5,0.1,0.8l0,0.1c0,0.3,0,0.5,0,0.8l-0.1,18.6
			c0,0.3,0,0.5,0,0.8l0,0.1c0,0.2-0.1,0.4-0.1,0.6l0,0.1c0,0.2-0.1,0.4-0.2,0.6l0,0.1c-0.1,0.2-0.1,0.3-0.2,0.5l0,0.1
			c-0.1,0.2-0.2,0.3-0.3,0.5c-0.1,0.2-0.3,0.4-0.5,0.6l-0.1,0.1c-0.2,0.2-0.4,0.3-0.6,0.4l5.6-3.2c0.2-0.1,0.4-0.3,0.6-0.4l0.1-0.1
			c0.2-0.2,0.3-0.4,0.5-0.6l0,0c0.1-0.2,0.2-0.3,0.3-0.5l0,0l0-0.1l0.1-0.3l0.1-0.2l0-0.1l0-0.1l0.1-0.4l0-0.1l0-0.1l0-0.1l0-0.3
			l0-0.2l0-0.1l0-0.1l0-0.3l0-0.3v0l0.1-18.6L456.3,625.6z"/>
		<path fill-rule="evenodd" clip-rule="evenodd" fill="#B8BBBB" d="M1112.4,433.4c0,0-0.1,0-0.1,0.1 M1113.5,432.4
			C1113.5,432.4,1113.5,432.4,1113.5,432.4C1113.5,432.4,1113.5,432.4,1113.5,432.4z M1113.4,432.5
			C1113.5,432.5,1113.5,432.5,1113.4,432.5C1113.5,432.5,1113.5,432.5,1113.4,432.5z M1113.4,432.6
			C1113.4,432.6,1113.4,432.6,1113.4,432.6C1113.4,432.6,1113.4,432.6,1113.4,432.6z M1113.3,432.7
			C1113.3,432.7,1113.3,432.6,1113.3,432.7C1113.3,432.6,1113.3,432.7,1113.3,432.7z M1113.2,432.8
			C1113.2,432.7,1113.2,432.7,1113.2,432.8C1113.2,432.7,1113.2,432.7,1113.2,432.8z M1113.1,432.8
			C1113.1,432.8,1113.2,432.8,1113.1,432.8C1113.2,432.8,1113.1,432.8,1113.1,432.8z M1113,432.9
			C1113,432.9,1113.1,432.9,1113,432.9C1113.1,432.9,1113,432.9,1113,432.9z M1112.7,433.1L1112.7,433.1c0,0,0.1-0.1,0.1-0.1l0,0
			l0,0c0,0,0.1,0,0.1-0.1l0,0c0,0,0.1,0,0.1-0.1c0,0-0.1,0-0.1,0.1 M1112.5,433.3c0.1,0,0.1-0.1,0.2-0.1
			C1112.6,433.2,1112.6,433.2,1112.5,433.3z M1112.3,428.2l-82.2-47.8c-2.5-1.4-6.5-1.4-9,0l-33,18.7c-2.9,1.7-11,5.2-6.7,9.2
			c0.2,0.1,0.3,0.2,0.5,0.4l0.3,0.2l0.1,0l85.3,49.6c0.4,0.2,0.8,0.4,1.3,0.6l0.1,0.1l0.3,0.1c0.2,0.1,0.4,0.1,0.6,0.2l0.2,0.1
			c0.2,0,0.4,0.1,0.5,0.1l0.2,0l0.1,0c0.2,0,0.5,0,0.7,0l0.3,0h0.2l0.2,0c0.2,0,0.4,0,0.6,0l0.2,0l0.2,0l0.2,0
			c0.2,0,0.4-0.1,0.6-0.1l0.2,0l0.2,0l0.3-0.1c0.2-0.1,0.4-0.1,0.6-0.2l0.2-0.1l0.1,0c0.3-0.1,0.6-0.3,0.9-0.4l35.6-19.2
			c1.3-0.7,1.9-1.7,1.9-2.6l0-6C1114.2,429.9,1113.6,428.9,1112.3,428.2z"/>
		<path id="XMLID_19_" fill-rule="evenodd" clip-rule="evenodd" fill="#D2D3D5" d="M1119.8,423.9l-82.2-47.8c-2.5-1.4-6.5-1.4-9,0
			L994.2,396c-2.5,1.4-2.5,3.8,0,5.2l82.2,47.8c2.5,1.4,6.5,1.4,9,0l34.4-19.9C1122.3,427.7,1122.3,425.3,1119.8,423.9"/>
		<path id="XMLID_18_" fill-rule="evenodd" clip-rule="evenodd" fill="#B4B5B5" d="M1092.7,433.3c-2.2,1.2-2.2,3.3,0,4.5
			c2.1,1.2,5.6,1.2,7.8,0c2.2-1.2,2.2-3.3,0-4.5C1098.4,432,1094.9,432,1092.7,433.3"/>
		<polygon id="XMLID_17_" fill-rule="evenodd" clip-rule="evenodd" fill="#2F3635" points="1000.8,402 1070.3,442.4 1108.6,420.4 
			1039,379.9 		"/>
		<path id="XMLID_16_" fill-rule="evenodd" clip-rule="evenodd" fill="#B8BBBB" d="M1121.7,426.5c0,0.9-0.6,1.9-1.9,2.6l-34.4,19.9
			c-0.3,0.2-0.6,0.3-1,0.5l-0.2,0.1c-0.3,0.1-0.6,0.2-0.9,0.3l-0.2,0c-0.3,0.1-0.7,0.1-1,0.2l-0.2,0c-0.3,0-0.7,0.1-1.1,0.1l-0.2,0
			c-0.4,0-0.7,0-1.1-0.1l-0.2,0c-0.3,0-0.5-0.1-0.8-0.1c-0.2,0-0.4-0.1-0.6-0.2c-0.2,0-0.3-0.1-0.5-0.1c-0.4-0.2-0.9-0.3-1.3-0.6
			l-82.2-47.8c-0.1-0.1-0.3-0.2-0.4-0.3c-0.2-0.1-0.3-0.2-0.5-0.3c-0.2-0.2-0.4-0.4-0.5-0.6l-0.1-0.1c-0.1-0.2-0.2-0.4-0.3-0.6
			l0-0.1c-0.1-0.2-0.1-0.4-0.1-0.7l0,6l0,0.1l0,0.4l0.1,0.2l0,0.1l0,0.1l0.2,0.4l0.1,0.2l0.1,0.1l0.1,0.1c0.1,0.1,0.2,0.3,0.4,0.4
			l0,0c0.1,0.1,0.3,0.2,0.5,0.3l0.3,0.2l0.1,0l82.2,47.8c0.4,0.2,0.8,0.4,1.3,0.6l0.1,0.1l0.3,0.1c0.2,0.1,0.4,0.1,0.6,0.2l0.2,0.1
			c0.2,0,0.4,0.1,0.5,0.1l0.2,0l0.1,0c0.2,0,0.5,0,0.7,0l0.3,0h0.2l0.2,0c0.2,0,0.4,0,0.6,0l0.2,0l0.2,0l0.2,0
			c0.2,0,0.4-0.1,0.6-0.1l0.2,0l0.2,0l0.3-0.1c0.2-0.1,0.4-0.1,0.6-0.2l0.2-0.1l0.1,0c0.3-0.1,0.6-0.3,0.9-0.4l34.4-19.9
			c1.3-0.7,1.9-1.7,1.9-2.6L1121.7,426.5z"/>
		<path id="XMLID_15_" fill-rule="evenodd" clip-rule="evenodd" fill="#B8BBBB" d="M479.9,582.6c-2,0-3.9-0.4-5.7-1.3l-156.8-91
			c-3.9-1.8-5.8-5.5-5.8-9.1c0-3.7,2-7.3,5.9-9.1L485,375.9v205.7c0,0,0,0.1,0,0.1C483.4,582.3,481.7,582.6,479.9,582.6"/>
		<path id="XMLID_14_" fill-rule="evenodd" clip-rule="evenodd" fill="#F0F1F1" d="M626.8,472.2L572.5,497c-3.7,1.7-4.3,6.7-1,9.2
			l57.5,44c5.6,4.3,13.2,5.2,19.6,2.2l67.8-40c4.5-2,5.2-11,0.5-12.5L630.7,472C629.4,471.6,628,471.7,626.8,472.2"/>
		<path id="XMLID_13_" fill-rule="evenodd" clip-rule="evenodd" fill="#E0DAD7" d="M630.7,472c-1.3-0.4-2.7-0.3-3.9,0.2L572.5,497
			c-3.7,1.7-4.3,6.7-1,9.2l57.5,44c4.8,3.7,10.9,4.8,16.6,3.3l0-77L630.7,472z"/>
		<path id="XMLID_12_" fill-rule="evenodd" clip-rule="evenodd" fill="#A5A098" d="M630.7,472c-1.3-0.4-2.7-0.3-3.9,0.2L572.5,497
			c-3.7,1.7-4.3,6.7-1,9.2l57.5,44c0.7,0.5,1.4,1,2.2,1.4v-79.4L630.7,472z"/>
		<path id="XMLID_11_" fill-rule="evenodd" clip-rule="evenodd" fill="#CACDCD" d="M626.8,468.5l-54.2,24.7c-3.7,1.7-4.3,6.7-1,9.2
			l57.5,44c5.6,4.3,13.2,5.2,19.6,2.2l67.8-40c4.5-2,4.1-8.5-0.6-10l-85.2-30.4C629.4,467.9,628,467.9,626.8,468.5"/>
		<path id="XMLID_10_" fill-rule="evenodd" clip-rule="evenodd" fill="#B3B7B7" d="M636.5,470.3c-1.3-0.4-2.7-0.3-3.9,0.2
			l-54.2,24.7c-3.7,1.7-5.7,8.8-2.5,11.3l35,26.2l73.9-45.2L636.5,470.3z"/>
		<path id="XMLID_9_" fill-rule="evenodd" clip-rule="evenodd" fill="#CACDCD" d="M467.2,317.8v249c0,7.5,11.9,16.4,18.8,13.3
			l291-174.5c3.7-1.7,6-5.4,6-9.4l5.9-256.1c0-7.5-13.7-11.8-20.6-8.6L479,299.4C471.8,302.7,467.2,309.9,467.2,317.8"/>
		<path id="XMLID_8_" fill-rule="evenodd" clip-rule="evenodd" fill="#BBB5AD" d="M478.8,299.6c-7,3.3-11.6,10.4-11.6,18.2v249
			c0,7.5,11.9,16.4,18.8,13.3l28.9-13.9V305.1L478.8,299.6z"/>
		<path id="XMLID_7_" fill-rule="evenodd" clip-rule="evenodd" fill="#212939" d="M474.6,322.3v249c0,7.5,7.8,12.5,14.6,9.4
			l295.1-170.6c3.7-1.7,6-5.4,6-9.4l0-255.3c0-7.5-7.8-12.5-14.6-9.4L486.4,304C479.2,307.2,474.6,314.4,474.6,322.3"/>
		<path id="XMLID_6_" fill-rule="evenodd" clip-rule="evenodd" fill="#F0F1F1" d="M474.6,571.3c0,7.5,7.8,12.5,14.6,9.4l295.1-170.6
			c3.7-1.7,6-5.4,6-9.4l0-33.6L474.6,547.2V571.3z"/>
		<path id="XMLID_5_" fill-rule="evenodd" clip-rule="evenodd" fill="#D7D3CF" d="M485,581.6c-5.4,0-10.3-4.4-10.3-10.4v-3.7
			c0,6,4.9,10.4,10.3,10.4c1.4,0,2.9-0.3,4.3-0.9l295.1-170.6c3.7-1.7,6-5.4,6-9.4l0,3.7c0,4.1-2.4,7.7-6,9.4L489.3,580.7
			C487.8,581.3,486.4,581.6,485,581.6"/>
		<path id="XMLID_4_" fill-rule="evenodd" clip-rule="evenodd" fill="#323F56" d="M488.4,321.5v199.6c0,3.1,3.3,5.2,6.1,3.9
			l281-162.9c1.5-0.7,2.5-2.2,2.5-3.9l0-199.6c0-3.1-3.2-5.2-6.1-3.9l-281,162.9C489.4,318.3,488.4,319.8,488.4,321.5"/>
		<path id="XMLID_3_" fill-rule="evenodd" clip-rule="evenodd" fill="#3A475E" d="M488.4,321.5v199.6c0,2.1,1.5,3.7,3.3,4.2
			L777.2,156c-1.1-1.6-3.3-2.3-5.3-1.4l-281,162.9C489.4,318.3,488.4,319.8,488.4,321.5"/>
		<path id="XMLID_2_" fill-rule="evenodd" clip-rule="evenodd" fill="#636B79" d="M630.2,482c-1.8,0-3.5-1.5-3.5-3.5l0-6.2
			c0-1.4,0.8-2.6,2-3.1l4.7-2.2c0.5-0.2,1-0.3,1.4-0.3c1.8,0,3.5,1.5,3.5,3.5v6.2c0,1.4-0.8,2.6-2,3.1l-4.7,2.2
			C631.1,481.9,630.6,482,630.2,482"/>
	</g>
</g>
</svg>
